<svg width="390" height="147" viewBox="0 0 390 147" version="1.1" xmlns="http://www.w3.org/2000/svg" xmlns:xlink="http://www.w3.org/1999/xlink">
<g id="Canvas" fill="none">
<g id="matrix_to_equation">
<g id="Canvas_2">
<g id="Group 2">
<g id="30x   y = 1000 50x   y = 100">
<g id="Vector">
<path d="M 2.31251 5.14063L 3.39844 5.14063C 4.08073 5.13021 4.61718 4.95052 5.00781 4.60156C 5.39843 4.2526 5.59375 3.78125 5.59375 3.1875C 5.59375 1.85417 4.92968 1.1875 3.60156 1.1875C 2.97656 1.1875 2.47656 1.36719 2.10156 1.72656C 1.73177 2.08073 1.54688 2.55208 1.54688 3.14063L 0.101563 3.14063C 0.101563 2.23958 0.429685 1.49219 1.08593 0.89844C 1.7474 0.29948 2.58593 0 3.60156 0C 4.67447 0 5.51562 0.28385 6.125 0.85156C 6.73438 1.41927 7.03906 2.20833 7.03906 3.21875C 7.03906 3.71354 6.8776 4.19271 6.55469 4.65625C 6.23698 5.11979 5.80208 5.46615 5.25 5.69531C 5.875 5.89323 6.35677 6.22135 6.69531 6.67965C 7.03906 7.13805 7.21094 7.69795 7.21094 8.35935C 7.21094 9.38025 6.8776 10.1902 6.21094 10.7891C 5.54428 11.3881 4.67708 11.6875 3.60938 11.6875C 2.54167 11.6875 1.67188 11.3984 1.00001 10.8203C 0.333335 10.2421 0 9.47915 0 8.53125L 1.45312 8.53125C 1.45312 9.13025 1.64843 9.60935 2.03906 9.96875C 2.42968 10.3281 2.95312 10.5078 3.60938 10.5078C 4.30729 10.5078 4.84115 10.3256 5.21094 9.96095C 5.58073 9.59635 5.76562 9.07295 5.76562 8.39065C 5.76562 7.72915 5.56251 7.22135 5.15625 6.86715C 4.75001 6.51302 4.16407 6.33073 3.39844 6.32031L 2.31251 6.32031L 2.31251 5.14063ZM 16.3281 6.67965C 16.3281 8.37235 16.039 9.63025 15.4609 10.4531C 14.8828 11.276 13.9791 11.6875 12.75 11.6875C 11.5364 11.6875 10.638 11.2865 10.0547 10.4844C 9.47132 9.67705 9.16927 8.47395 9.14843 6.87505L 9.14843 4.94531C 9.14843 3.27344 9.43752 2.03125 10.0156 1.21875C 10.5937 0.40625 11.5 0 12.7344 0C 13.9583 0 14.8594 0.39323 15.4375 1.17969C 16.0156 1.96094 16.3125 3.16927 16.3281 4.80469L 16.3281 6.67965ZM 14.8828 4.70313C 14.8828 3.47917 14.7109 2.58854 14.3672 2.03125C 14.0234 1.46875 13.4791 1.1875 12.7344 1.1875C 11.9948 1.1875 11.4557 1.46615 11.1172 2.02344C 10.7786 2.58073 10.6041 3.4375 10.5937 4.59375L 10.5937 6.90625C 10.5937 8.13545 10.7708 9.04425 11.125 9.63285C 11.4844 10.2161 12.026 10.5078 12.75 10.5078C 13.4635 10.5078 13.9922 10.2318 14.3359 9.67965C 14.6849 9.12765 14.8672 8.25785 14.8828 7.07035L 14.8828 4.70313ZM 21.164 6.16406L 23.039 3.07813L 24.7265 3.07813L 21.9609 7.25785L 24.8125 11.5312L 23.1406 11.5312L 21.1875 8.36715L 19.2344 11.5312L 17.5547 11.5312L 20.4062 7.25785L 17.6406 3.07813L 19.3125 3.07813L 21.164 6.16406ZM 33.2422 7.28905L 29.4297 7.28905L 29.4297 6.10937L 33.2422 6.10937L 33.2422 7.28905ZM 41.3906 9.41405L 43.3594 3.07813L 44.9062 3.07813L 41.5078 12.836C 40.9817 14.2422 40.1458 14.9454 39 14.9454L 38.7265 14.9219L 38.1875 14.8204L 38.1875 13.6485L 38.5781 13.6796C 39.0677 13.6796 39.4479 13.5808 39.7187 13.3829C 39.9948 13.1849 40.2213 12.823 40.3984 12.2969L 40.7187 11.4375L 37.7031 3.07813L 39.2812 3.07813L 41.3906 9.41405ZM 60.75 5.17187L 54.2344 5.17187L 54.2344 3.91406L 60.75 3.91406L 60.75 5.17187ZM 60.75 8.41405L 54.2344 8.41405L 54.2344 7.16405L 60.75 7.16405L 60.75 8.41405ZM 75.4609 11.5312L 74.0078 11.5312L 74.0078 1.89844L 71.0937 2.96875L 71.0937 1.65625L 75.2344 0.10156L 75.4609 0.10156L 75.4609 11.5312ZM 86.8281 6.67965C 86.8281 8.37235 86.539 9.63025 85.9609 10.4531C 85.3828 11.276 84.4791 11.6875 83.25 11.6875C 82.0364 11.6875 81.138 11.2865 80.5547 10.4844C 79.9713 9.67705 79.6692 8.47395 79.6484 6.87505L 79.6484 4.94531C 79.6484 3.27344 79.9375 2.03125 80.5156 1.21875C 81.0937 0.40625 82 0 83.2344 0C 84.4583 0 85.3594 0.39323 85.9375 1.17969C 86.5156 1.96094 86.8125 3.16927 86.8281 4.80469L 86.8281 6.67965ZM 85.3828 4.70313C 85.3828 3.47917 85.2109 2.58854 84.8672 2.03125C 84.5234 1.46875 83.9791 1.1875 83.2344 1.1875C 82.4948 1.1875 81.9557 1.46615 81.6172 2.02344C 81.2786 2.58073 81.1041 3.4375 81.0937 4.59375L 81.0937 6.90625C 81.0937 8.13545 81.2708 9.04425 81.625 9.63285C 81.9844 10.2161 82.526 10.5078 83.25 10.5078C 83.9635 10.5078 84.4922 10.2318 84.8359 9.67965C 85.1849 9.12765 85.3672 8.25785 85.3828 7.07035L 85.3828 4.70313ZM 95.8125 6.67965C 95.8125 8.37235 95.5234 9.63025 94.9453 10.4531C 94.3672 11.276 93.4635 11.6875 92.2344 11.6875C 91.0208 11.6875 90.1224 11.2865 89.539 10.4844C 88.9557 9.67705 88.6536 8.47395 88.6328 6.87505L 88.6328 4.94531C 88.6328 3.27344 88.9218 2.03125 89.5 1.21875C 90.0781 0.40625 90.9844 0 92.2187 0C 93.4427 0 94.3437 0.39323 94.9218 1.17969C 95.5 1.96094 95.7968 3.16927 95.8125 4.80469L 95.8125 6.67965ZM 94.3672 4.70313C 94.3672 3.47917 94.1953 2.58854 93.8515 2.03125C 93.5078 1.46875 92.9635 1.1875 92.2187 1.1875C 91.4791 1.1875 90.9401 1.46615 90.6015 2.02344C 90.263 2.58073 90.0885 3.4375 90.0781 4.59375L 90.0781 6.90625C 90.0781 8.13545 90.2552 9.04425 90.6094 9.63285C 90.9687 10.2161 91.5104 10.5078 92.2344 10.5078C 92.9479 10.5078 93.4765 10.2318 93.8203 9.67965C 94.1692 9.12765 94.3515 8.25785 94.3672 7.07035L 94.3672 4.70313ZM 104.797 6.67965C 104.797 8.37235 104.508 9.63025 103.93 10.4531C 103.352 11.276 102.448 11.6875 101.219 11.6875C 100.006 11.6875 99.1067 11.2865 98.5234 10.4844C 97.9401 9.67705 97.638 8.47395 97.6172 6.87505L 97.6172 4.94531C 97.6172 3.27344 97.9062 2.03125 98.4844 1.21875C 99.0625 0.40625 99.9686 0 101.204 0C 102.427 0 103.328 0.39323 103.907 1.17969C 104.485 1.96094 104.782 3.16927 104.797 4.80469L 104.797 6.67965ZM 103.352 4.70313C 103.352 3.47917 103.18 2.58854 102.836 2.03125C 102.493 1.46875 101.948 1.1875 101.204 1.1875C 100.464 1.1875 99.9246 1.46615 99.5856 2.02344C 99.2474 2.58073 99.0729 3.4375 99.0625 4.59375L 99.0625 6.90625C 99.0625 8.13545 99.2396 9.04425 99.5936 9.63285C 99.9536 10.2161 100.495 10.5078 101.219 10.5078C 101.933 10.5078 102.461 10.2318 102.805 9.67965C 103.154 9.12765 103.336 8.25785 103.352 7.07035L 103.352 4.70313ZM 0.875005 24.8281L 1.45312 19.1562L 7.28125 19.1562L 7.28125 20.4921L 2.67969 20.4921L 2.33594 23.5938C 2.89323 23.2656 3.52605 23.1015 4.23438 23.1015C 5.27083 23.1015 6.09375 23.4454 6.70312 24.1329C 7.3125 24.8152 7.61718 25.7395 7.61718 26.9062C 7.61718 28.0781 7.29947 29.0026 6.66406 29.6796C 6.03385 30.3515 5.15104 30.6875 4.01562 30.6875C 3.01042 30.6875 2.19011 30.4089 1.55469 29.8516C 0.919275 29.2943 0.557295 28.5234 0.468745 27.539L 1.83594 27.539C 1.92448 28.1901 2.15624 28.6823 2.53124 29.0157C 2.90624 29.3438 3.40105 29.5079 4.01562 29.5079C 4.6875 29.5079 5.21355 29.2787 5.59375 28.8204C 5.97917 28.3619 6.17188 27.7292 6.17188 26.9219C 6.17188 26.1614 5.96354 25.552 5.54688 25.0938C 5.13542 24.6303 4.58594 24.3985 3.89844 24.3985C 3.26823 24.3985 2.77343 24.5365 2.41406 24.8125L 2.03124 25.125L 0.875005 24.8281ZM 16.3281 25.6796C 16.3281 27.3723 16.039 28.6303 15.4609 29.4532C 14.8828 30.2761 13.9791 30.6875 12.75 30.6875C 11.5364 30.6875 10.638 30.2864 10.0547 29.4843C 9.47132 28.677 9.16927 27.4739 9.14843 25.875L 9.14843 23.9454C 9.14843 22.2735 9.43752 21.0312 10.0156 20.2188C 10.5937 19.4062 11.5 19 12.7344 19C 13.9583 19 14.8594 19.3932 15.4375 20.1796C 16.0156 20.9609 16.3125 22.1692 16.3281 23.8046L 16.3281 25.6796ZM 14.8828 23.7031C 14.8828 22.4791 14.7109 21.5886 14.3672 21.0312C 14.0234 20.4688 13.4791 20.1875 12.7344 20.1875C 11.9948 20.1875 11.4557 20.4662 11.1172 21.0235C 10.7786 21.5808 10.6041 22.4375 10.5937 23.5938L 10.5937 25.9062C 10.5937 27.1355 10.7708 28.0443 11.125 28.6329C 11.4844 29.2162 12.026 29.5079 12.75 29.5079C 13.4635 29.5079 13.9922 29.2317 14.3359 28.6796C 14.6849 28.1276 14.8672 27.2579 14.8828 26.0704L 14.8828 23.7031ZM 21.164 25.164L 23.039 22.0781L 24.7265 22.0781L 21.9609 26.2579L 24.8125 30.5312L 23.1406 30.5312L 21.1875 27.3671L 19.2344 30.5312L 17.5547 30.5312L 20.4062 26.2579L 17.6406 22.0781L 19.3125 22.0781L 21.164 25.164ZM 33.2422 26.289L 29.4297 26.289L 29.4297 25.1094L 33.2422 25.1094L 33.2422 26.289ZM 41.3906 28.414L 43.3594 22.0781L 44.9062 22.0781L 41.5078 31.8359C 40.9817 33.2421 40.1458 33.9454 39 33.9454L 38.7265 33.9218L 38.1875 33.8204L 38.1875 32.6484L 38.5781 32.6796C 39.0677 32.6796 39.4479 32.5807 39.7187 32.3829C 39.9948 32.1848 40.2213 31.8229 40.3984 31.2968L 40.7187 30.4375L 37.7031 22.0781L 39.2812 22.0781L 41.3906 28.414ZM 60.75 24.1719L 54.2344 24.1719L 54.2344 22.914L 60.75 22.914L 60.75 24.1719ZM 60.75 27.414L 54.2344 27.414L 54.2344 26.164L 60.75 26.164L 60.75 27.414ZM 75.4609 30.5312L 74.0078 30.5312L 74.0078 20.8985L 71.0937 21.9688L 71.0937 20.6562L 75.2344 19.1015L 75.4609 19.1015L 75.4609 30.5312ZM 86.8281 25.6796C 86.8281 27.3723 86.539 28.6303 85.9609 29.4532C 85.3828 30.2761 84.4791 30.6875 83.25 30.6875C 82.0364 30.6875 81.138 30.2864 80.5547 29.4843C 79.9713 28.677 79.6692 27.4739 79.6484 25.875L 79.6484 23.9454C 79.6484 22.2735 79.9375 21.0312 80.5156 20.2188C 81.0937 19.4062 82 19 83.2344 19C 84.4583 19 85.3594 19.3932 85.9375 20.1796C 86.5156 20.9609 86.8125 22.1692 86.8281 23.8046L 86.8281 25.6796ZM 85.3828 23.7031C 85.3828 22.4791 85.2109 21.5886 84.8672 21.0312C 84.5234 20.4688 83.9791 20.1875 83.2344 20.1875C 82.4948 20.1875 81.9557 20.4662 81.6172 21.0235C 81.2786 21.5808 81.1041 22.4375 81.0937 23.5938L 81.0937 25.9062C 81.0937 27.1355 81.2708 28.0443 81.625 28.6329C 81.9844 29.2162 82.526 29.5079 83.25 29.5079C 83.9635 29.5079 84.4922 29.2317 84.8359 28.6796C 85.1849 28.1276 85.3672 27.2579 85.3828 26.0704L 85.3828 23.7031ZM 95.8125 25.6796C 95.8125 27.3723 95.5234 28.6303 94.9453 29.4532C 94.3672 30.2761 93.4635 30.6875 92.2344 30.6875C 91.0208 30.6875 90.1224 30.2864 89.539 29.4843C 88.9557 28.677 88.6536 27.4739 88.6328 25.875L 88.6328 23.9454C 88.6328 22.2735 88.9218 21.0312 89.5 20.2188C 90.0781 19.4062 90.9844 19 92.2187 19C 93.4427 19 94.3437 19.3932 94.9218 20.1796C 95.5 20.9609 95.7968 22.1692 95.8125 23.8046L 95.8125 25.6796ZM 94.3672 23.7031C 94.3672 22.4791 94.1953 21.5886 93.8515 21.0312C 93.5078 20.4688 92.9635 20.1875 92.2187 20.1875C 91.4791 20.1875 90.9401 20.4662 90.6015 21.0235C 90.263 21.5808 90.0885 22.4375 90.0781 23.5938L 90.0781 25.9062C 90.0781 27.1355 90.2552 28.0443 90.6094 28.6329C 90.9687 29.2162 91.5104 29.5079 92.2344 29.5079C 92.9479 29.5079 93.4765 29.2317 93.8203 28.6796C 94.1692 28.1276 94.3515 27.2579 94.3672 26.0704L 94.3672 23.7031Z" transform="translate(5.73438 22.8652)" fill="#333333"/>
</g>
</g>
<g id="30  1  1000 50  1  100">
<g id="Vector_2">
<path d="M 2.31251 5.14063L 3.39844 5.14063C 4.08073 5.13021 4.61718 4.95052 5.00781 4.60156C 5.39843 4.2526 5.59375 3.78125 5.59375 3.1875C 5.59375 1.85417 4.92968 1.1875 3.60156 1.1875C 2.97656 1.1875 2.47656 1.36719 2.10156 1.72656C 1.73177 2.08073 1.54688 2.55208 1.54688 3.14063L 0.101563 3.14063C 0.101563 2.23958 0.429685 1.49219 1.08593 0.89844C 1.7474 0.29948 2.58593 0 3.60156 0C 4.67447 0 5.51562 0.28385 6.125 0.85156C 6.73438 1.41927 7.03906 2.20833 7.03906 3.21875C 7.03906 3.71354 6.8776 4.19271 6.55469 4.65625C 6.23698 5.11979 5.80208 5.46615 5.25 5.69531C 5.875 5.89323 6.35677 6.22135 6.69531 6.67965C 7.03906 7.13805 7.21094 7.69795 7.21094 8.35935C 7.21094 9.38025 6.8776 10.1902 6.21094 10.7891C 5.54428 11.3881 4.67708 11.6875 3.60938 11.6875C 2.54167 11.6875 1.67188 11.3984 1.00001 10.8203C 0.333335 10.2421 0 9.47915 0 8.53125L 1.45312 8.53125C 1.45312 9.13025 1.64843 9.60935 2.03906 9.96875C 2.42968 10.3281 2.95312 10.5078 3.60938 10.5078C 4.30729 10.5078 4.84115 10.3256 5.21094 9.96095C 5.58073 9.59635 5.76562 9.07295 5.76562 8.39065C 5.76562 7.72915 5.56251 7.22135 5.15625 6.86715C 4.75001 6.51302 4.16407 6.33073 3.39844 6.32031L 2.31251 6.32031L 2.31251 5.14063ZM 16.3281 6.67965C 16.3281 8.37235 16.039 9.63025 15.4609 10.4531C 14.8828 11.276 13.9791 11.6875 12.75 11.6875C 11.5364 11.6875 10.638 11.2865 10.0547 10.4844C 9.47132 9.67705 9.16927 8.47395 9.14843 6.87505L 9.14843 4.94531C 9.14843 3.27344 9.43752 2.03125 10.0156 1.21875C 10.5937 0.40625 11.5 0 12.7344 0C 13.9583 0 14.8594 0.39323 15.4375 1.17969C 16.0156 1.96094 16.3125 3.16927 16.3281 4.80469L 16.3281 6.67965ZM 14.8828 4.70313C 14.8828 3.47917 14.7109 2.58854 14.3672 2.03125C 14.0234 1.46875 13.4791 1.1875 12.7344 1.1875C 11.9948 1.1875 11.4557 1.46615 11.1172 2.02344C 10.7786 2.58073 10.6041 3.4375 10.5937 4.59375L 10.5937 6.90625C 10.5937 8.13545 10.7708 9.04425 11.125 9.63285C 11.4844 10.2161 12.026 10.5078 12.75 10.5078C 13.4635 10.5078 13.9922 10.2318 14.3359 9.67965C 14.6849 9.12765 14.8672 8.25785 14.8828 7.07035L 14.8828 4.70313ZM 33.2422 7.28905L 29.4297 7.28905L 29.4297 6.10937L 33.2422 6.10937L 33.2422 7.28905ZM 39.2578 11.5312L 37.8047 11.5312L 37.8047 1.89844L 34.8906 2.96875L 34.8906 1.65625L 39.0312 0.10156L 39.2578 0.10156L 39.2578 11.5312ZM 62.5234 7.28905L 58.7109 7.28905L 58.7109 6.10937L 62.5234 6.10937L 62.5234 7.28905ZM 68.539 11.5312L 67.0859 11.5312L 67.0859 1.89844L 64.1718 2.96875L 64.1718 1.65625L 68.3125 0.10156L 68.539 0.10156L 68.539 11.5312ZM 79.9062 6.67965C 79.9062 8.37235 79.6172 9.63025 79.039 10.4531C 78.4609 11.276 77.5573 11.6875 76.3281 11.6875C 75.1146 11.6875 74.2161 11.2865 73.6328 10.4844C 73.0495 9.67705 72.7474 8.47395 72.7265 6.87505L 72.7265 4.94531C 72.7265 3.27344 73.0156 2.03125 73.5937 1.21875C 74.1718 0.40625 75.0781 0 76.3125 0C 77.5364 0 78.4375 0.39323 79.0156 1.17969C 79.5937 1.96094 79.8906 3.16927 79.9062 4.80469L 79.9062 6.67965ZM 78.4609 4.70313C 78.4609 3.47917 78.289 2.58854 77.9453 2.03125C 77.6015 1.46875 77.0573 1.1875 76.3125 1.1875C 75.5729 1.1875 75.0338 1.46615 74.6953 2.02344C 74.3567 2.58073 74.1823 3.4375 74.1718 4.59375L 74.1718 6.90625C 74.1718 8.13545 74.3489 9.04425 74.7031 9.63285C 75.0625 10.2161 75.6041 10.5078 76.3281 10.5078C 77.0416 10.5078 77.5703 10.2318 77.914 9.67965C 78.263 9.12765 78.4453 8.25785 78.4609 7.07035L 78.4609 4.70313ZM 88.8906 6.67965C 88.8906 8.37235 88.6015 9.63025 88.0234 10.4531C 87.4453 11.276 86.5416 11.6875 85.3125 11.6875C 84.0989 11.6875 83.2005 11.2865 82.6172 10.4844C 82.0338 9.67705 81.7317 8.47395 81.7109 6.87505L 81.7109 4.94531C 81.7109 3.27344 82 2.03125 82.5781 1.21875C 83.1562 0.40625 84.0625 0 85.2968 0C 86.5208 0 87.4218 0.39323 88 1.17969C 88.5781 1.96094 88.875 3.16927 88.8906 4.80469L 88.8906 6.67965ZM 87.4453 4.70313C 87.4453 3.47917 87.2734 2.58854 86.9297 2.03125C 86.5859 1.46875 86.0416 1.1875 85.2968 1.1875C 84.5573 1.1875 84.0182 1.46615 83.6797 2.02344C 83.3411 2.58073 83.1666 3.4375 83.1562 4.59375L 83.1562 6.90625C 83.1562 8.13545 83.3333 9.04425 83.6875 9.63285C 84.0468 10.2161 84.5885 10.5078 85.3125 10.5078C 86.026 10.5078 86.5547 10.2318 86.8984 9.67965C 87.2474 9.12765 87.4297 8.25785 87.4453 7.07035L 87.4453 4.70313ZM 97.875 6.67965C 97.875 8.37235 97.5859 9.63025 97.0078 10.4531C 96.4297 11.276 95.526 11.6875 94.2968 11.6875C 93.0833 11.6875 92.1849 11.2865 91.6015 10.4844C 91.0182 9.67705 90.7161 8.47395 90.6953 6.87505L 90.6953 4.94531C 90.6953 3.27344 90.9844 2.03125 91.5625 1.21875C 92.1406 0.40625 93.0468 0 94.2812 0C 95.5052 0 96.4062 0.39323 96.9844 1.17969C 97.5625 1.96094 97.8594 3.16927 97.875 4.80469L 97.875 6.67965ZM 96.4297 4.70313C 96.4297 3.47917 96.2578 2.58854 95.914 2.03125C 95.5703 1.46875 95.026 1.1875 94.2812 1.1875C 93.5416 1.1875 93.0026 1.46615 92.664 2.02344C 92.3255 2.58073 92.151 3.4375 92.1406 4.59375L 92.1406 6.90625C 92.1406 8.13545 92.3177 9.04425 92.6718 9.63285C 93.0312 10.2161 93.5729 10.5078 94.2968 10.5078C 95.0104 10.5078 95.539 10.2318 95.8828 9.67965C 96.2317 9.12765 96.414 8.25785 96.4297 7.07035L 96.4297 4.70313ZM 0.875005 24.8281L 1.45312 19.1562L 7.28125 19.1562L 7.28125 20.4921L 2.67969 20.4921L 2.33594 23.5938C 2.89323 23.2656 3.52605 23.1015 4.23438 23.1015C 5.27083 23.1015 6.09375 23.4454 6.70312 24.1329C 7.3125 24.8152 7.61718 25.7395 7.61718 26.9062C 7.61718 28.0781 7.29947 29.0026 6.66406 29.6796C 6.03385 30.3515 5.15104 30.6875 4.01562 30.6875C 3.01042 30.6875 2.19011 30.4089 1.55469 29.8516C 0.919275 29.2943 0.557295 28.5234 0.468745 27.539L 1.83594 27.539C 1.92448 28.1901 2.15624 28.6823 2.53124 29.0157C 2.90624 29.3438 3.40105 29.5079 4.01562 29.5079C 4.6875 29.5079 5.21355 29.2787 5.59375 28.8204C 5.97917 28.3619 6.17188 27.7292 6.17188 26.9219C 6.17188 26.1614 5.96354 25.552 5.54688 25.0938C 5.13542 24.6303 4.58594 24.3985 3.89844 24.3985C 3.26823 24.3985 2.77343 24.5365 2.41406 24.8125L 2.03124 25.125L 0.875005 24.8281ZM 16.3281 25.6796C 16.3281 27.3723 16.039 28.6303 15.4609 29.4532C 14.8828 30.2761 13.9791 30.6875 12.75 30.6875C 11.5364 30.6875 10.638 30.2864 10.0547 29.4843C 9.47132 28.677 9.16927 27.4739 9.14843 25.875L 9.14843 23.9454C 9.14843 22.2735 9.43752 21.0312 10.0156 20.2188C 10.5937 19.4062 11.5 19 12.7344 19C 13.9583 19 14.8594 19.3932 15.4375 20.1796C 16.0156 20.9609 16.3125 22.1692 16.3281 23.8046L 16.3281 25.6796ZM 14.8828 23.7031C 14.8828 22.4791 14.7109 21.5886 14.3672 21.0312C 14.0234 20.4688 13.4791 20.1875 12.7344 20.1875C 11.9948 20.1875 11.4557 20.4662 11.1172 21.0235C 10.7786 21.5808 10.6041 22.4375 10.5937 23.5938L 10.5937 25.9062C 10.5937 27.1355 10.7708 28.0443 11.125 28.6329C 11.4844 29.2162 12.026 29.5079 12.75 29.5079C 13.4635 29.5079 13.9922 29.2317 14.3359 28.6796C 14.6849 28.1276 14.8672 27.2579 14.8828 26.0704L 14.8828 23.7031ZM 33.2422 26.289L 29.4297 26.289L 29.4297 25.1094L 33.2422 25.1094L 33.2422 26.289ZM 39.2578 30.5312L 37.8047 30.5312L 37.8047 20.8985L 34.8906 21.9688L 34.8906 20.6562L 39.0312 19.1015L 39.2578 19.1015L 39.2578 30.5312ZM 62.5234 26.289L 58.7109 26.289L 58.7109 25.1094L 62.5234 25.1094L 62.5234 26.289ZM 68.539 30.5312L 67.0859 30.5312L 67.0859 20.8985L 64.1718 21.9688L 64.1718 20.6562L 68.3125 19.1015L 68.539 19.1015L 68.539 30.5312ZM 79.9062 25.6796C 79.9062 27.3723 79.6172 28.6303 79.039 29.4532C 78.4609 30.2761 77.5573 30.6875 76.3281 30.6875C 75.1146 30.6875 74.2161 30.2864 73.6328 29.4843C 73.0495 28.677 72.7474 27.4739 72.7265 25.875L 72.7265 23.9454C 72.7265 22.2735 73.0156 21.0312 73.5937 20.2188C 74.1718 19.4062 75.0781 19 76.3125 19C 77.5364 19 78.4375 19.3932 79.0156 20.1796C 79.5937 20.9609 79.8906 22.1692 79.9062 23.8046L 79.9062 25.6796ZM 78.4609 23.7031C 78.4609 22.4791 78.289 21.5886 77.9453 21.0312C 77.6015 20.4688 77.0573 20.1875 76.3125 20.1875C 75.5729 20.1875 75.0338 20.4662 74.6953 21.0235C 74.3567 21.5808 74.1823 22.4375 74.1718 23.5938L 74.1718 25.9062C 74.1718 27.1355 74.3489 28.0443 74.7031 28.6329C 75.0625 29.2162 75.6041 29.5079 76.3281 29.5079C 77.0416 29.5079 77.5703 29.2317 77.914 28.6796C 78.263 28.1276 78.4453 27.2579 78.4609 26.0704L 78.4609 23.7031ZM 88.8906 25.6796C 88.8906 27.3723 88.6015 28.6303 88.0234 29.4532C 87.4453 30.2761 86.5416 30.6875 85.3125 30.6875C 84.0989 30.6875 83.2005 30.2864 82.6172 29.4843C 82.0338 28.677 81.7317 27.4739 81.7109 25.875L 81.7109 23.9454C 81.7109 22.2735 82 21.0312 82.5781 20.2188C 83.1562 19.4062 84.0625 19 85.2968 19C 86.5208 19 87.4218 19.3932 88 20.1796C 88.5781 20.9609 88.875 22.1692 88.8906 23.8046L 88.8906 25.6796ZM 87.4453 23.7031C 87.4453 22.4791 87.2734 21.5886 86.9297 21.0312C 86.5859 20.4688 86.0416 20.1875 85.2968 20.1875C 84.5573 20.1875 84.0182 20.4662 83.6797 21.0235C 83.3411 21.5808 83.1666 22.4375 83.1562 23.5938L 83.1562 25.9062C 83.1562 27.1355 83.3333 28.0443 83.6875 28.6329C 84.0468 29.2162 84.5885 29.5079 85.3125 29.5079C 86.026 29.5079 86.5547 29.2317 86.8984 28.6796C 87.2474 28.1276 87.4297 27.2579 87.4453 26.0704L 87.4453 23.7031Z" transform="translate(182.734 21.8652)" fill="#333333"/>
</g>
</g>
<g id="Component">
<g id="Line 2">
<g id="Vector_3">
<path d="M 0 1L 49 1L 49 0L 0 0L 0 1Z" transform="matrix(0 1 -0.99936 0.0357696 174.999 13.3607)" fill="black"/>
</g>
</g>
<g id="Line 3">
<g id="Vector_4">
<path d="M 0 1L 6 1L 6 0L 0 0L 0 1Z" transform="translate(174 12.3965)" fill="black"/>
</g>
</g>
<g id="Line 3_2">
<g id="Vector_5">
<path d="M 0 1L 6 1L 6 0L 0 0L 0 1Z" transform="translate(174 61.3965)" fill="black"/>
</g>
</g>
</g>
<g id="Component_2">
<g id="Line 2_2">
<g id="Vector_6">
<path d="M 0 1L 48 1L 48 0L 0 0L 0 1Z" transform="matrix(0 -1 0.999386 -0.0350406 287.001 61.4315)" fill="black"/>
</g>
</g>
<g id="Line 3_3">
<g id="Vector_7">
<path d="M 0 1L 6 1L 6 0L 0 0L 0 1Z" transform="translate(288 62.3965) scale(-1)" fill="black"/>
</g>
</g>
<g id="Line 3_4">
<g id="Vector_8">
<path d="M 0 1L 6 1L 6 0L 0 0L 0 1Z" transform="translate(288 14.3965) scale(-1)" fill="black"/>
</g>
</g>
</g>
<g id="Line">
<g id="Vector_9">
<path d="M 0 1L 43 1L 43 0L 0 0L 0 1Z" transform="matrix(0 1 -1 0 233 16.3965)" fill="black"/>
</g>
</g>
<g id="30x   y = 1000 50x   y = 100_2">
<g id="Vector_10">
<path d="M 2.31251 5.14063L 3.39844 5.14063C 4.08073 5.13021 4.61718 4.95052 5.00781 4.60156C 5.39843 4.2526 5.59375 3.78125 5.59375 3.1875C 5.59375 1.85417 4.92968 1.1875 3.60156 1.1875C 2.97656 1.1875 2.47656 1.36719 2.10156 1.72656C 1.73177 2.08073 1.54688 2.55208 1.54688 3.14063L 0.101563 3.14063C 0.101563 2.23958 0.429685 1.49219 1.08593 0.89844C 1.7474 0.29948 2.58593 0 3.60156 0C 4.67447 0 5.51562 0.28385 6.125 0.85156C 6.73438 1.41927 7.03906 2.20833 7.03906 3.21875C 7.03906 3.71354 6.8776 4.19271 6.55469 4.65625C 6.23698 5.11979 5.80208 5.46615 5.25 5.69531C 5.875 5.89323 6.35677 6.22135 6.69531 6.67965C 7.03906 7.13805 7.21094 7.69795 7.21094 8.35935C 7.21094 9.38025 6.8776 10.1902 6.21094 10.7891C 5.54428 11.3881 4.67708 11.6875 3.60938 11.6875C 2.54167 11.6875 1.67188 11.3984 1.00001 10.8203C 0.333335 10.2421 0 9.47915 0 8.53125L 1.45312 8.53125C 1.45312 9.13025 1.64843 9.60935 2.03906 9.96875C 2.42968 10.3281 2.95312 10.5078 3.60938 10.5078C 4.30729 10.5078 4.84115 10.3256 5.21094 9.96095C 5.58073 9.59635 5.76562 9.07295 5.76562 8.39065C 5.76562 7.72915 5.56251 7.22135 5.15625 6.86715C 4.75001 6.51302 4.16407 6.33073 3.39844 6.32031L 2.31251 6.32031L 2.31251 5.14063ZM 16.3281 6.67965C 16.3281 8.37235 16.039 9.63025 15.4609 10.4531C 14.8828 11.276 13.9791 11.6875 12.75 11.6875C 11.5364 11.6875 10.638 11.2865 10.0547 10.4844C 9.47132 9.67705 9.16927 8.47395 9.14843 6.87505L 9.14843 4.94531C 9.14843 3.27344 9.43752 2.03125 10.0156 1.21875C 10.5937 0.40625 11.5 0 12.7344 0C 13.9583 0 14.8594 0.39323 15.4375 1.17969C 16.0156 1.96094 16.3125 3.16927 16.3281 4.80469L 16.3281 6.67965ZM 14.8828 4.70313C 14.8828 3.47917 14.7109 2.58854 14.3672 2.03125C 14.0234 1.46875 13.4791 1.1875 12.7344 1.1875C 11.9948 1.1875 11.4557 1.46615 11.1172 2.02344C 10.7786 2.58073 10.6041 3.4375 10.5937 4.59375L 10.5937 6.90625C 10.5937 8.13545 10.7708 9.04425 11.125 9.63285C 11.4844 10.2161 12.026 10.5078 12.75 10.5078C 13.4635 10.5078 13.9922 10.2318 14.3359 9.67965C 14.6849 9.12765 14.8672 8.25785 14.8828 7.07035L 14.8828 4.70313ZM 21.164 6.16406L 23.039 3.07813L 24.7265 3.07813L 21.9609 7.25785L 24.8125 11.5312L 23.1406 11.5312L 21.1875 8.36715L 19.2344 11.5312L 17.5547 11.5312L 20.4062 7.25785L 17.6406 3.07813L 19.3125 3.07813L 21.164 6.16406ZM 33.2422 7.28905L 29.4297 7.28905L 29.4297 6.10937L 33.2422 6.10937L 33.2422 7.28905ZM 41.3906 9.41405L 43.3594 3.07813L 44.9062 3.07813L 41.5078 12.836C 40.9817 14.2422 40.1458 14.9454 39 14.9454L 38.7265 14.9219L 38.1875 14.8204L 38.1875 13.6485L 38.5781 13.6796C 39.0677 13.6796 39.4479 13.5808 39.7187 13.3829C 39.9948 13.1849 40.2213 12.823 40.3984 12.2969L 40.7187 11.4375L 37.7031 3.07813L 39.2812 3.07813L 41.3906 9.41405ZM 60.75 5.17187L 54.2344 5.17187L 54.2344 3.91406L 60.75 3.91406L 60.75 5.17187ZM 60.75 8.41405L 54.2344 8.41405L 54.2344 7.16405L 60.75 7.16405L 60.75 8.41405ZM 75.4609 11.5312L 74.0078 11.5312L 74.0078 1.89844L 71.0937 2.96875L 71.0937 1.65625L 75.2344 0.10156L 75.4609 0.10156L 75.4609 11.5312ZM 86.8281 6.67965C 86.8281 8.37235 86.539 9.63025 85.9609 10.4531C 85.3828 11.276 84.4791 11.6875 83.25 11.6875C 82.0364 11.6875 81.138 11.2865 80.5547 10.4844C 79.9713 9.67705 79.6692 8.47395 79.6484 6.87505L 79.6484 4.94531C 79.6484 3.27344 79.9375 2.03125 80.5156 1.21875C 81.0937 0.40625 82 0 83.2344 0C 84.4583 0 85.3594 0.39323 85.9375 1.17969C 86.5156 1.96094 86.8125 3.16927 86.8281 4.80469L 86.8281 6.67965ZM 85.3828 4.70313C 85.3828 3.47917 85.2109 2.58854 84.8672 2.03125C 84.5234 1.46875 83.9791 1.1875 83.2344 1.1875C 82.4948 1.1875 81.9557 1.46615 81.6172 2.02344C 81.2786 2.58073 81.1041 3.4375 81.0937 4.59375L 81.0937 6.90625C 81.0937 8.13545 81.2708 9.04425 81.625 9.63285C 81.9844 10.2161 82.526 10.5078 83.25 10.5078C 83.9635 10.5078 84.4922 10.2318 84.8359 9.67965C 85.1849 9.12765 85.3672 8.25785 85.3828 7.07035L 85.3828 4.70313ZM 95.8125 6.67965C 95.8125 8.37235 95.5234 9.63025 94.9453 10.4531C 94.3672 11.276 93.4635 11.6875 92.2344 11.6875C 91.0208 11.6875 90.1224 11.2865 89.539 10.4844C 88.9557 9.67705 88.6536 8.47395 88.6328 6.87505L 88.6328 4.94531C 88.6328 3.27344 88.9218 2.03125 89.5 1.21875C 90.0781 0.40625 90.9844 0 92.2187 0C 93.4427 0 94.3437 0.39323 94.9218 1.17969C 95.5 1.96094 95.7968 3.16927 95.8125 4.80469L 95.8125 6.67965ZM 94.3672 4.70313C 94.3672 3.47917 94.1953 2.58854 93.8515 2.03125C 93.5078 1.46875 92.9635 1.1875 92.2187 1.1875C 91.4791 1.1875 90.9401 1.46615 90.6015 2.02344C 90.263 2.58073 90.0885 3.4375 90.0781 4.59375L 90.0781 6.90625C 90.0781 8.13545 90.2552 9.04425 90.6094 9.63285C 90.9687 10.2161 91.5104 10.5078 92.2344 10.5078C 92.9479 10.5078 93.4765 10.2318 93.8203 9.67965C 94.1692 9.12765 94.3515 8.25785 94.3672 7.07035L 94.3672 4.70313ZM 104.797 6.67965C 104.797 8.37235 104.508 9.63025 103.93 10.4531C 103.352 11.276 102.448 11.6875 101.219 11.6875C 100.006 11.6875 99.1067 11.2865 98.5234 10.4844C 97.9401 9.67705 97.638 8.47395 97.6172 6.87505L 97.6172 4.94531C 97.6172 3.27344 97.9062 2.03125 98.4844 1.21875C 99.0625 0.40625 99.9686 0 101.204 0C 102.427 0 103.328 0.39323 103.907 1.17969C 104.485 1.96094 104.782 3.16927 104.797 4.80469L 104.797 6.67965ZM 103.352 4.70313C 103.352 3.47917 103.18 2.58854 102.836 2.03125C 102.493 1.46875 101.948 1.1875 101.204 1.1875C 100.464 1.1875 99.9246 1.46615 99.5856 2.02344C 99.2474 2.58073 99.0729 3.4375 99.0625 4.59375L 99.0625 6.90625C 99.0625 8.13545 99.2396 9.04425 99.5936 9.63285C 99.9536 10.2161 100.495 10.5078 101.219 10.5078C 101.933 10.5078 102.461 10.2318 102.805 9.67965C 103.154 9.12765 103.336 8.25785 103.352 7.07035L 103.352 4.70313ZM 0.875005 24.8281L 1.45312 19.1562L 7.28125 19.1562L 7.28125 20.4921L 2.67969 20.4921L 2.33594 23.5938C 2.89323 23.2656 3.52605 23.1015 4.23438 23.1015C 5.27083 23.1015 6.09375 23.4454 6.70312 24.1329C 7.3125 24.8152 7.61718 25.7395 7.61718 26.9062C 7.61718 28.0781 7.29947 29.0026 6.66406 29.6796C 6.03385 30.3515 5.15104 30.6875 4.01562 30.6875C 3.01042 30.6875 2.19011 30.4089 1.55469 29.8516C 0.919275 29.2943 0.557295 28.5234 0.468745 27.539L 1.83594 27.539C 1.92448 28.1901 2.15624 28.6823 2.53124 29.0157C 2.90624 29.3438 3.40105 29.5079 4.01562 29.5079C 4.6875 29.5079 5.21355 29.2787 5.59375 28.8204C 5.97917 28.3619 6.17188 27.7292 6.17188 26.9219C 6.17188 26.1614 5.96354 25.552 5.54688 25.0938C 5.13542 24.6303 4.58594 24.3985 3.89844 24.3985C 3.26823 24.3985 2.77343 24.5365 2.41406 24.8125L 2.03124 25.125L 0.875005 24.8281ZM 16.3281 25.6796C 16.3281 27.3723 16.039 28.6303 15.4609 29.4532C 14.8828 30.2761 13.9791 30.6875 12.75 30.6875C 11.5364 30.6875 10.638 30.2864 10.0547 29.4843C 9.47132 28.677 9.16927 27.4739 9.14843 25.875L 9.14843 23.9454C 9.14843 22.2735 9.43752 21.0312 10.0156 20.2188C 10.5937 19.4062 11.5 19 12.7344 19C 13.9583 19 14.8594 19.3932 15.4375 20.1796C 16.0156 20.9609 16.3125 22.1692 16.3281 23.8046L 16.3281 25.6796ZM 14.8828 23.7031C 14.8828 22.4791 14.7109 21.5886 14.3672 21.0312C 14.0234 20.4688 13.4791 20.1875 12.7344 20.1875C 11.9948 20.1875 11.4557 20.4662 11.1172 21.0235C 10.7786 21.5808 10.6041 22.4375 10.5937 23.5938L 10.5937 25.9062C 10.5937 27.1355 10.7708 28.0443 11.125 28.6329C 11.4844 29.2162 12.026 29.5079 12.75 29.5079C 13.4635 29.5079 13.9922 29.2317 14.3359 28.6796C 14.6849 28.1276 14.8672 27.2579 14.8828 26.0704L 14.8828 23.7031ZM 21.164 25.164L 23.039 22.0781L 24.7265 22.0781L 21.9609 26.2579L 24.8125 30.5312L 23.1406 30.5312L 21.1875 27.3671L 19.2344 30.5312L 17.5547 30.5312L 20.4062 26.2579L 17.6406 22.0781L 19.3125 22.0781L 21.164 25.164ZM 33.2422 26.289L 29.4297 26.289L 29.4297 25.1094L 33.2422 25.1094L 33.2422 26.289ZM 41.3906 28.414L 43.3594 22.0781L 44.9062 22.0781L 41.5078 31.8359C 40.9817 33.2421 40.1458 33.9454 39 33.9454L 38.7265 33.9218L 38.1875 33.8204L 38.1875 32.6484L 38.5781 32.6796C 39.0677 32.6796 39.4479 32.5807 39.7187 32.3829C 39.9948 32.1848 40.2213 31.8229 40.3984 31.2968L 40.7187 30.4375L 37.7031 22.0781L 39.2812 22.0781L 41.3906 28.414ZM 60.75 24.1719L 54.2344 24.1719L 54.2344 22.914L 60.75 22.914L 60.75 24.1719ZM 60.75 27.414L 54.2344 27.414L 54.2344 26.164L 60.75 26.164L 60.75 27.414ZM 75.4609 30.5312L 74.0078 30.5312L 74.0078 20.8985L 71.0937 21.9688L 71.0937 20.6562L 75.2344 19.1015L 75.4609 19.1015L 75.4609 30.5312ZM 86.8281 25.6796C 86.8281 27.3723 86.539 28.6303 85.9609 29.4532C 85.3828 30.2761 84.4791 30.6875 83.25 30.6875C 82.0364 30.6875 81.138 30.2864 80.5547 29.4843C 79.9713 28.677 79.6692 27.4739 79.6484 25.875L 79.6484 23.9454C 79.6484 22.2735 79.9375 21.0312 80.5156 20.2188C 81.0937 19.4062 82 19 83.2344 19C 84.4583 19 85.3594 19.3932 85.9375 20.1796C 86.5156 20.9609 86.8125 22.1692 86.8281 23.8046L 86.8281 25.6796ZM 85.3828 23.7031C 85.3828 22.4791 85.2109 21.5886 84.8672 21.0312C 84.5234 20.4688 83.9791 20.1875 83.2344 20.1875C 82.4948 20.1875 81.9557 20.4662 81.6172 21.0235C 81.2786 21.5808 81.1041 22.4375 81.0937 23.5938L 81.0937 25.9062C 81.0937 27.1355 81.2708 28.0443 81.625 28.6329C 81.9844 29.2162 82.526 29.5079 83.25 29.5079C 83.9635 29.5079 84.4922 29.2317 84.8359 28.6796C 85.1849 28.1276 85.3672 27.2579 85.3828 26.0704L 85.3828 23.7031ZM 95.8125 25.6796C 95.8125 27.3723 95.5234 28.6303 94.9453 29.4532C 94.3672 30.2761 93.4635 30.6875 92.2344 30.6875C 91.0208 30.6875 90.1224 30.2864 89.539 29.4843C 88.9557 28.677 88.6536 27.4739 88.6328 25.875L 88.6328 23.9454C 88.6328 22.2735 88.9218 21.0312 89.5 20.2188C 90.0781 19.4062 90.9844 19 92.2187 19C 93.4427 19 94.3437 19.3932 94.9218 20.1796C 95.5 20.9609 95.7968 22.1692 95.8125 23.8046L 95.8125 25.6796ZM 94.3672 23.7031C 94.3672 22.4791 94.1953 21.5886 93.8515 21.0312C 93.5078 20.4688 92.9635 20.1875 92.2187 20.1875C 91.4791 20.1875 90.9401 20.4662 90.6015 21.0235C 90.263 21.5808 90.0885 22.4375 90.0781 23.5938L 90.0781 25.9062C 90.0781 27.1355 90.2552 28.0443 90.6094 28.6329C 90.9687 29.2162 91.5104 29.5079 92.2344 29.5079C 92.9479 29.5079 93.4765 29.2317 93.8203 28.6796C 94.1692 28.1276 94.3515 27.2579 94.3672 26.0704L 94.3672 23.7031Z" transform="translate(5.73438 22.8652)" fill="#333333"/>
</g>
</g>
<g id="30  1  1000 50  1  100_2">
<g id="Vector_11">
<path d="M 2.31251 5.14063L 3.39844 5.14063C 4.08073 5.13021 4.61718 4.95052 5.00781 4.60156C 5.39843 4.2526 5.59375 3.78125 5.59375 3.1875C 5.59375 1.85417 4.92968 1.1875 3.60156 1.1875C 2.97656 1.1875 2.47656 1.36719 2.10156 1.72656C 1.73177 2.08073 1.54688 2.55208 1.54688 3.14063L 0.101563 3.14063C 0.101563 2.23958 0.429685 1.49219 1.08593 0.89844C 1.7474 0.29948 2.58593 0 3.60156 0C 4.67447 0 5.51562 0.28385 6.125 0.85156C 6.73438 1.41927 7.03906 2.20833 7.03906 3.21875C 7.03906 3.71354 6.8776 4.19271 6.55469 4.65625C 6.23698 5.11979 5.80208 5.46615 5.25 5.69531C 5.875 5.89323 6.35677 6.22135 6.69531 6.67965C 7.03906 7.13805 7.21094 7.69795 7.21094 8.35935C 7.21094 9.38025 6.8776 10.1902 6.21094 10.7891C 5.54428 11.3881 4.67708 11.6875 3.60938 11.6875C 2.54167 11.6875 1.67188 11.3984 1.00001 10.8203C 0.333335 10.2421 0 9.47915 0 8.53125L 1.45312 8.53125C 1.45312 9.13025 1.64843 9.60935 2.03906 9.96875C 2.42968 10.3281 2.95312 10.5078 3.60938 10.5078C 4.30729 10.5078 4.84115 10.3256 5.21094 9.96095C 5.58073 9.59635 5.76562 9.07295 5.76562 8.39065C 5.76562 7.72915 5.56251 7.22135 5.15625 6.86715C 4.75001 6.51302 4.16407 6.33073 3.39844 6.32031L 2.31251 6.32031L 2.31251 5.14063ZM 16.3281 6.67965C 16.3281 8.37235 16.039 9.63025 15.4609 10.4531C 14.8828 11.276 13.9791 11.6875 12.75 11.6875C 11.5364 11.6875 10.638 11.2865 10.0547 10.4844C 9.47132 9.67705 9.16927 8.47395 9.14843 6.87505L 9.14843 4.94531C 9.14843 3.27344 9.43752 2.03125 10.0156 1.21875C 10.5937 0.40625 11.5 0 12.7344 0C 13.9583 0 14.8594 0.39323 15.4375 1.17969C 16.0156 1.96094 16.3125 3.16927 16.3281 4.80469L 16.3281 6.67965ZM 14.8828 4.70313C 14.8828 3.47917 14.7109 2.58854 14.3672 2.03125C 14.0234 1.46875 13.4791 1.1875 12.7344 1.1875C 11.9948 1.1875 11.4557 1.46615 11.1172 2.02344C 10.7786 2.58073 10.6041 3.4375 10.5937 4.59375L 10.5937 6.90625C 10.5937 8.13545 10.7708 9.04425 11.125 9.63285C 11.4844 10.2161 12.026 10.5078 12.75 10.5078C 13.4635 10.5078 13.9922 10.2318 14.3359 9.67965C 14.6849 9.12765 14.8672 8.25785 14.8828 7.07035L 14.8828 4.70313ZM 33.2422 7.28905L 29.4297 7.28905L 29.4297 6.10937L 33.2422 6.10937L 33.2422 7.28905ZM 39.2578 11.5312L 37.8047 11.5312L 37.8047 1.89844L 34.8906 2.96875L 34.8906 1.65625L 39.0312 0.10156L 39.2578 0.10156L 39.2578 11.5312ZM 62.5234 7.28905L 58.7109 7.28905L 58.7109 6.10937L 62.5234 6.10937L 62.5234 7.28905ZM 68.539 11.5312L 67.0859 11.5312L 67.0859 1.89844L 64.1718 2.96875L 64.1718 1.65625L 68.3125 0.10156L 68.539 0.10156L 68.539 11.5312ZM 79.9062 6.67965C 79.9062 8.37235 79.6172 9.63025 79.039 10.4531C 78.4609 11.276 77.5573 11.6875 76.3281 11.6875C 75.1146 11.6875 74.2161 11.2865 73.6328 10.4844C 73.0495 9.67705 72.7474 8.47395 72.7265 6.87505L 72.7265 4.94531C 72.7265 3.27344 73.0156 2.03125 73.5937 1.21875C 74.1718 0.40625 75.0781 0 76.3125 0C 77.5364 0 78.4375 0.39323 79.0156 1.17969C 79.5937 1.96094 79.8906 3.16927 79.9062 4.80469L 79.9062 6.67965ZM 78.4609 4.70313C 78.4609 3.47917 78.289 2.58854 77.9453 2.03125C 77.6015 1.46875 77.0573 1.1875 76.3125 1.1875C 75.5729 1.1875 75.0338 1.46615 74.6953 2.02344C 74.3567 2.58073 74.1823 3.4375 74.1718 4.59375L 74.1718 6.90625C 74.1718 8.13545 74.3489 9.04425 74.7031 9.63285C 75.0625 10.2161 75.6041 10.5078 76.3281 10.5078C 77.0416 10.5078 77.5703 10.2318 77.914 9.67965C 78.263 9.12765 78.4453 8.25785 78.4609 7.07035L 78.4609 4.70313ZM 88.8906 6.67965C 88.8906 8.37235 88.6015 9.63025 88.0234 10.4531C 87.4453 11.276 86.5416 11.6875 85.3125 11.6875C 84.0989 11.6875 83.2005 11.2865 82.6172 10.4844C 82.0338 9.67705 81.7317 8.47395 81.7109 6.87505L 81.7109 4.94531C 81.7109 3.27344 82 2.03125 82.5781 1.21875C 83.1562 0.40625 84.0625 0 85.2968 0C 86.5208 0 87.4218 0.39323 88 1.17969C 88.5781 1.96094 88.875 3.16927 88.8906 4.80469L 88.8906 6.67965ZM 87.4453 4.70313C 87.4453 3.47917 87.2734 2.58854 86.9297 2.03125C 86.5859 1.46875 86.0416 1.1875 85.2968 1.1875C 84.5573 1.1875 84.0182 1.46615 83.6797 2.02344C 83.3411 2.58073 83.1666 3.4375 83.1562 4.59375L 83.1562 6.90625C 83.1562 8.13545 83.3333 9.04425 83.6875 9.63285C 84.0468 10.2161 84.5885 10.5078 85.3125 10.5078C 86.026 10.5078 86.5547 10.2318 86.8984 9.67965C 87.2474 9.12765 87.4297 8.25785 87.4453 7.07035L 87.4453 4.70313ZM 97.875 6.67965C 97.875 8.37235 97.5859 9.63025 97.0078 10.4531C 96.4297 11.276 95.526 11.6875 94.2968 11.6875C 93.0833 11.6875 92.1849 11.2865 91.6015 10.4844C 91.0182 9.67705 90.7161 8.47395 90.6953 6.87505L 90.6953 4.94531C 90.6953 3.27344 90.9844 2.03125 91.5625 1.21875C 92.1406 0.40625 93.0468 0 94.2812 0C 95.5052 0 96.4062 0.39323 96.9844 1.17969C 97.5625 1.96094 97.8594 3.16927 97.875 4.80469L 97.875 6.67965ZM 96.4297 4.70313C 96.4297 3.47917 96.2578 2.58854 95.914 2.03125C 95.5703 1.46875 95.026 1.1875 94.2812 1.1875C 93.5416 1.1875 93.0026 1.46615 92.664 2.02344C 92.3255 2.58073 92.151 3.4375 92.1406 4.59375L 92.1406 6.90625C 92.1406 8.13545 92.3177 9.04425 92.6718 9.63285C 93.0312 10.2161 93.5729 10.5078 94.2968 10.5078C 95.0104 10.5078 95.539 10.2318 95.8828 9.67965C 96.2317 9.12765 96.414 8.25785 96.4297 7.07035L 96.4297 4.70313ZM 0.875005 24.8281L 1.45312 19.1562L 7.28125 19.1562L 7.28125 20.4921L 2.67969 20.4921L 2.33594 23.5938C 2.89323 23.2656 3.52605 23.1015 4.23438 23.1015C 5.27083 23.1015 6.09375 23.4454 6.70312 24.1329C 7.3125 24.8152 7.61718 25.7395 7.61718 26.9062C 7.61718 28.0781 7.29947 29.0026 6.66406 29.6796C 6.03385 30.3515 5.15104 30.6875 4.01562 30.6875C 3.01042 30.6875 2.19011 30.4089 1.55469 29.8516C 0.919275 29.2943 0.557295 28.5234 0.468745 27.539L 1.83594 27.539C 1.92448 28.1901 2.15624 28.6823 2.53124 29.0157C 2.90624 29.3438 3.40105 29.5079 4.01562 29.5079C 4.6875 29.5079 5.21355 29.2787 5.59375 28.8204C 5.97917 28.3619 6.17188 27.7292 6.17188 26.9219C 6.17188 26.1614 5.96354 25.552 5.54688 25.0938C 5.13542 24.6303 4.58594 24.3985 3.89844 24.3985C 3.26823 24.3985 2.77343 24.5365 2.41406 24.8125L 2.03124 25.125L 0.875005 24.8281ZM 16.3281 25.6796C 16.3281 27.3723 16.039 28.6303 15.4609 29.4532C 14.8828 30.2761 13.9791 30.6875 12.75 30.6875C 11.5364 30.6875 10.638 30.2864 10.0547 29.4843C 9.47132 28.677 9.16927 27.4739 9.14843 25.875L 9.14843 23.9454C 9.14843 22.2735 9.43752 21.0312 10.0156 20.2188C 10.5937 19.4062 11.5 19 12.7344 19C 13.9583 19 14.8594 19.3932 15.4375 20.1796C 16.0156 20.9609 16.3125 22.1692 16.3281 23.8046L 16.3281 25.6796ZM 14.8828 23.7031C 14.8828 22.4791 14.7109 21.5886 14.3672 21.0312C 14.0234 20.4688 13.4791 20.1875 12.7344 20.1875C 11.9948 20.1875 11.4557 20.4662 11.1172 21.0235C 10.7786 21.5808 10.6041 22.4375 10.5937 23.5938L 10.5937 25.9062C 10.5937 27.1355 10.7708 28.0443 11.125 28.6329C 11.4844 29.2162 12.026 29.5079 12.75 29.5079C 13.4635 29.5079 13.9922 29.2317 14.3359 28.6796C 14.6849 28.1276 14.8672 27.2579 14.8828 26.0704L 14.8828 23.7031ZM 33.2422 26.289L 29.4297 26.289L 29.4297 25.1094L 33.2422 25.1094L 33.2422 26.289ZM 39.2578 30.5312L 37.8047 30.5312L 37.8047 20.8985L 34.8906 21.9688L 34.8906 20.6562L 39.0312 19.1015L 39.2578 19.1015L 39.2578 30.5312ZM 62.5234 26.289L 58.7109 26.289L 58.7109 25.1094L 62.5234 25.1094L 62.5234 26.289ZM 68.539 30.5312L 67.0859 30.5312L 67.0859 20.8985L 64.1718 21.9688L 64.1718 20.6562L 68.3125 19.1015L 68.539 19.1015L 68.539 30.5312ZM 79.9062 25.6796C 79.9062 27.3723 79.6172 28.6303 79.039 29.4532C 78.4609 30.2761 77.5573 30.6875 76.3281 30.6875C 75.1146 30.6875 74.2161 30.2864 73.6328 29.4843C 73.0495 28.677 72.7474 27.4739 72.7265 25.875L 72.7265 23.9454C 72.7265 22.2735 73.0156 21.0312 73.5937 20.2188C 74.1718 19.4062 75.0781 19 76.3125 19C 77.5364 19 78.4375 19.3932 79.0156 20.1796C 79.5937 20.9609 79.8906 22.1692 79.9062 23.8046L 79.9062 25.6796ZM 78.4609 23.7031C 78.4609 22.4791 78.289 21.5886 77.9453 21.0312C 77.6015 20.4688 77.0573 20.1875 76.3125 20.1875C 75.5729 20.1875 75.0338 20.4662 74.6953 21.0235C 74.3567 21.5808 74.1823 22.4375 74.1718 23.5938L 74.1718 25.9062C 74.1718 27.1355 74.3489 28.0443 74.7031 28.6329C 75.0625 29.2162 75.6041 29.5079 76.3281 29.5079C 77.0416 29.5079 77.5703 29.2317 77.914 28.6796C 78.263 28.1276 78.4453 27.2579 78.4609 26.0704L 78.4609 23.7031ZM 88.8906 25.6796C 88.8906 27.3723 88.6015 28.6303 88.0234 29.4532C 87.4453 30.2761 86.5416 30.6875 85.3125 30.6875C 84.0989 30.6875 83.2005 30.2864 82.6172 29.4843C 82.0338 28.677 81.7317 27.4739 81.7109 25.875L 81.7109 23.9454C 81.7109 22.2735 82 21.0312 82.5781 20.2188C 83.1562 19.4062 84.0625 19 85.2968 19C 86.5208 19 87.4218 19.3932 88 20.1796C 88.5781 20.9609 88.875 22.1692 88.8906 23.8046L 88.8906 25.6796ZM 87.4453 23.7031C 87.4453 22.4791 87.2734 21.5886 86.9297 21.0312C 86.5859 20.4688 86.0416 20.1875 85.2968 20.1875C 84.5573 20.1875 84.0182 20.4662 83.6797 21.0235C 83.3411 21.5808 83.1666 22.4375 83.1562 23.5938L 83.1562 25.9062C 83.1562 27.1355 83.3333 28.0443 83.6875 28.6329C 84.0468 29.2162 84.5885 29.5079 85.3125 29.5079C 86.026 29.5079 86.5547 29.2317 86.8984 28.6796C 87.2474 28.1276 87.4297 27.2579 87.4453 26.0704L 87.4453 23.7031Z" transform="translate(182.734 21.8652)" fill="#333333"/>
</g>
</g>
<g id="Line 2_3">
<g id="Vector_12">
<path d="M 0 1L 49 1L 49 0L 0 0L 0 1Z" transform="matrix(0 1 -0.99936 0.0357696 174.999 13.3607)" fill="black"/>
</g>
</g>
<g id="Line 3_5">
<g id="Vector_13">
<path d="M 0 1L 6 1L 6 0L 0 0L 0 1Z" transform="translate(174 61.3965)" fill="black"/>
</g>
</g>
<g id="Line 2_4">
<g id="Vector_14">
<path d="M 0 1L 48 1L 48 0L 0 0L 0 1Z" transform="matrix(0 -1 0.999386 -0.0350406 287.001 61.4315)" fill="black"/>
</g>
</g>
<g id="Line 3_6">
<g id="Vector_15">
<path d="M 0 1L 6 1L 6 0L 0 0L 0 1Z" transform="translate(288 62.3965) scale(-1)" fill="black"/>
</g>
</g>
<g id="x y">
<g id="Vector_16">
<path d="M 3.15821 2.70019L 4.79883 -8.34656e-08L 6.27539 -8.34656e-08L 3.85547 3.65722L 6.35059 7.39648L 4.8877 7.39648L 3.17871 4.62788L 1.46973 7.39648L -9.53484e-09 7.39648L 2.49512 3.65722L 0.075196 -8.34656e-08L 1.53809 -8.34656e-08L 3.15821 2.70019ZM 30.8779 5.54398L 32.6006 -8.34656e-08L 33.9541 -8.34656e-08L 30.9804 8.53808C 30.5202 9.76858 29.7887 10.3838 28.7861 10.3838L 28.5468 10.3633L 28.0752 10.2744L 28.0752 9.24898L 28.417 9.27638C 28.8454 9.27638 29.178 9.18978 29.415 9.01658C 29.6565 8.84338 29.8548 8.52668 30.0097 8.06638L 30.29 7.31448L 27.6513 -8.34656e-08L 29.0322 -8.34656e-08L 30.8779 5.54398Z" transform="translate(188.28 0)" fill="black"/>
</g>
</g>
<g id="1 0 45 0 1 2350">
<g id="Vector_17">
<path d="M 4.79687 11.5312L 3.34375 11.5312L 3.34375 1.89844L 0.429682 2.96875L 0.429682 1.65625L 4.57031 0.10156L 4.79687 0.10156L 4.79687 11.5312ZM 36.0078 6.67965C 36.0078 8.37235 35.7188 9.63025 35.1407 10.4531C 34.5625 11.276 33.6589 11.6875 32.4297 11.6875C 31.2162 11.6875 30.3177 11.2865 29.7344 10.4844C 29.1511 9.67705 28.849 8.47395 28.8282 6.87505L 28.8282 4.94531C 28.8282 3.27344 29.1172 2.03125 29.6954 1.21875C 30.2735 0.40625 31.1797 0 32.4141 0C 33.6381 0 34.5391 0.39323 35.1172 1.17969C 35.6954 1.96094 35.9922 3.16927 36.0078 4.80469L 36.0078 6.67965ZM 34.5625 4.70313C 34.5625 3.47917 34.3907 2.58854 34.0469 2.03125C 33.7032 1.46875 33.1589 1.1875 32.4141 1.1875C 31.6745 1.1875 31.1355 1.46615 30.7969 2.02344C 30.4584 2.58073 30.2839 3.4375 30.2735 4.59375L 30.2735 6.90625C 30.2735 8.13545 30.4506 9.04425 30.8047 9.63285C 31.1641 10.2161 31.7058 10.5078 32.4297 10.5078C 33.1433 10.5078 33.6719 10.2318 34.0157 9.67965C 34.3646 9.12765 34.5469 8.25785 34.5625 7.07035L 34.5625 4.70313ZM 79.6797 7.71095L 81.2578 7.71095L 81.2578 8.89065L 79.6797 8.89065L 79.6797 11.5312L 78.2266 11.5312L 78.2266 8.89065L 73.0469 8.89065L 73.0469 8.03905L 78.1407 0.15625L 79.6797 0.15625L 79.6797 7.71095ZM 74.6875 7.71095L 78.2266 7.71095L 78.2266 2.13281L 78.0547 2.44531L 74.6875 7.71095ZM 83.2266 5.82813L 83.8047 0.15625L 89.6328 0.15625L 89.6328 1.49219L 85.0313 1.49219L 84.6875 4.59375C 85.2448 4.26563 85.8776 4.10156 86.586 4.10156C 87.6224 4.10156 88.4454 4.44531 89.0547 5.13281C 89.6641 5.8151 89.9688 6.73955 89.9688 7.90625C 89.9688 9.07815 89.6511 10.0027 89.0157 10.6797C 88.3855 11.3516 87.5026 11.6875 86.3672 11.6875C 85.362 11.6875 84.5417 11.4088 83.9063 10.8516C 83.2709 10.2943 82.9089 9.52345 82.8204 8.53905L 84.1875 8.53905C 84.2761 9.19015 84.5078 9.68225 84.8828 10.0156C 85.2578 10.3438 85.7526 10.5078 86.3672 10.5078C 87.0391 10.5078 87.5651 10.2786 87.9454 9.82035C 88.3308 9.36195 88.5235 8.72915 88.5235 7.92185C 88.5235 7.16145 88.3151 6.55205 87.8985 6.09375C 87.487 5.63021 86.9375 5.39844 86.25 5.39844C 85.6198 5.39844 85.125 5.53646 84.7657 5.8125L 84.3828 6.125L 83.2266 5.82813ZM 7.17968 25.6796C 7.17968 27.3723 6.89062 28.6303 6.3125 29.4532C 5.73437 30.2761 4.83073 30.6875 3.60156 30.6875C 2.38802 30.6875 1.48958 30.2864 0.906252 29.4843C 0.322912 28.677 0.020833 27.4739 -2.31628e-08 25.875L -2.31628e-08 23.9454C -2.31628e-08 22.2735 0.289062 21.0312 0.867182 20.2188C 1.44531 19.4062 2.35156 19 3.58594 19C 4.80989 19 5.71094 19.3932 6.28906 20.1796C 6.86718 20.9609 7.16406 22.1692 7.17968 23.8046L 7.17968 25.6796ZM 5.73437 23.7031C 5.73437 22.4791 5.5625 21.5886 5.21875 21.0312C 4.875 20.4688 4.33073 20.1875 3.58594 20.1875C 2.84635 20.1875 2.30729 20.4662 1.96875 21.0235C 1.63021 21.5808 1.45573 22.4375 1.44531 23.5938L 1.44531 25.9062C 1.44531 27.1355 1.62239 28.0443 1.97656 28.6329C 2.33594 29.2162 2.8776 29.5079 3.60156 29.5079C 4.3151 29.5079 4.84375 29.2317 5.1875 28.6796C 5.53646 28.1276 5.71875 27.2579 5.73437 26.0704L 5.73437 23.7031ZM 33.625 30.5312L 32.1719 30.5312L 32.1719 20.8985L 29.2578 21.9688L 29.2578 20.6562L 33.3985 19.1015L 33.625 19.1015L 33.625 30.5312ZM 65.1563 30.5312L 57.7032 30.5312L 57.7032 29.4921L 61.6407 25.1171C 62.224 24.4557 62.625 23.9193 62.8438 23.5079C 63.0677 23.0912 63.1797 22.6614 63.1797 22.2188C 63.1797 21.625 63 21.1381 62.6407 20.7579C 62.2813 20.3777 61.8021 20.1875 61.2032 20.1875C 60.4844 20.1875 59.9245 20.3932 59.5235 20.8046C 59.1276 21.2109 58.9297 21.7787 58.9297 22.5079L 57.4844 22.5079C 57.4844 21.461 57.8204 20.6145 58.4922 19.9688C 59.1693 19.323 60.073 19 61.2032 19C 62.2605 19 63.0964 19.2787 63.711 19.836C 64.3256 20.3881 64.6328 21.125 64.6328 22.0469C 64.6328 23.1667 63.9193 24.5 62.4922 26.0469L 59.4454 29.3516L 65.1563 29.3516L 65.1563 30.5312ZM 68.7891 24.1406L 69.875 24.1406C 70.5573 24.1302 71.0938 23.9506 71.4844 23.6015C 71.875 23.2526 72.0704 22.7812 72.0704 22.1875C 72.0704 20.8542 71.4063 20.1875 70.0782 20.1875C 69.4532 20.1875 68.9532 20.3671 68.5782 20.7265C 68.2084 21.0807 68.0235 21.552 68.0235 22.1406L 66.5782 22.1406C 66.5782 21.2395 66.9063 20.4922 67.5625 19.8985C 68.224 19.2994 69.0625 19 70.0782 19C 71.1511 19 71.9922 19.2838 72.6016 19.8515C 73.211 20.4192 73.5157 21.2083 73.5157 22.2188C 73.5157 22.7136 73.3542 23.1928 73.0313 23.6562C 72.7136 24.1197 72.2787 24.4662 71.7266 24.6954C 72.3516 24.8933 72.8334 25.2213 73.1719 25.6796C 73.5157 26.1381 73.6875 26.698 73.6875 27.3594C 73.6875 28.3803 73.3542 29.1902 72.6875 29.7891C 72.0209 30.3881 71.1537 30.6875 70.086 30.6875C 69.0183 30.6875 68.1485 30.3985 67.4766 29.8204C 66.8099 29.2422 66.4766 28.4792 66.4766 27.5312L 67.9297 27.5312C 67.9297 28.1302 68.125 28.6094 68.5157 28.9688C 68.9063 29.3281 69.4297 29.5079 70.086 29.5079C 70.7839 29.5079 71.3177 29.3255 71.6875 28.9609C 72.0573 28.5963 72.2422 28.073 72.2422 27.3906C 72.2422 26.7291 72.0391 26.2213 71.6328 25.8671C 71.2266 25.5131 70.6407 25.3308 69.875 25.3204L 68.7891 25.3204L 68.7891 24.1406ZM 76.336 24.8281L 76.9141 19.1562L 82.7422 19.1562L 82.7422 20.4921L 78.1407 20.4921L 77.7969 23.5938C 78.3542 23.2656 78.987 23.1015 79.6954 23.1015C 80.7318 23.1015 81.5547 23.4454 82.1641 24.1329C 82.7735 24.8152 83.0782 25.7395 83.0782 26.9062C 83.0782 28.0781 82.7605 29.0026 82.125 29.6796C 81.4948 30.3515 80.612 30.6875 79.4766 30.6875C 78.4714 30.6875 77.6511 30.4089 77.0157 29.8516C 76.3802 29.2943 76.0183 28.5234 75.9297 27.539L 77.2969 27.539C 77.3855 28.1901 77.6172 28.6823 77.9922 29.0157C 78.3672 29.3438 78.862 29.5079 79.4766 29.5079C 80.1485 29.5079 80.6745 29.2787 81.0547 28.8204C 81.4401 28.3619 81.6328 27.7292 81.6328 26.9219C 81.6328 26.1614 81.4245 25.552 81.0078 25.0938C 80.5964 24.6303 80.0469 24.3985 79.3594 24.3985C 78.7292 24.3985 78.2344 24.5365 77.875 24.8125L 77.4922 25.125L 76.336 24.8281ZM 91.7891 25.6796C 91.7891 27.3723 91.5 28.6303 90.9219 29.4532C 90.3438 30.2761 89.4401 30.6875 88.211 30.6875C 86.9974 30.6875 86.099 30.2864 85.5157 29.4843C 84.9323 28.677 84.6302 27.4739 84.6094 25.875L 84.6094 23.9454C 84.6094 22.2735 84.8985 21.0312 85.4766 20.2188C 86.0547 19.4062 86.961 19 88.1954 19C 89.4193 19 90.3204 19.3932 90.8985 20.1796C 91.4766 20.9609 91.7735 22.1692 91.7891 23.8046L 91.7891 25.6796ZM 90.3438 23.7031C 90.3438 22.4791 90.1719 21.5886 89.8282 21.0312C 89.4844 20.4688 88.9401 20.1875 88.1954 20.1875C 87.4558 20.1875 86.9167 20.4662 86.5782 21.0235C 86.2396 21.5808 86.0651 22.4375 86.0547 23.5938L 86.0547 25.9062C 86.0547 27.1355 86.2318 28.0443 86.586 28.6329C 86.9454 29.2162 87.487 29.5079 88.211 29.5079C 88.9245 29.5079 89.4532 29.2317 89.7969 28.6796C 90.1459 28.1276 90.3282 27.2579 90.3438 26.0704L 90.3438 23.7031Z" transform="translate(8.89844 105.865)" fill="#333333"/>
</g>
</g>
<g id="Component_3">
<g id="Line 2_5">
<g id="Vector_18">
<path d="M 0 1L 49 1L 49 0L 0 0L 0 1Z" transform="matrix(0 1 -0.99936 0.0357696 0.999359 97.3607)" fill="black"/>
</g>
</g>
<g id="Line 3_7">
<g id="Vector_19">
<path d="M 0 1L 6 1L 6 0L 0 0L 0 1Z" transform="translate(0 96.3965)" fill="black"/>
</g>
</g>
<g id="Line 3_8">
<g id="Vector_20">
<path d="M 0 1L 6 1L 6 0L 0 0L 0 1Z" transform="translate(0 145.396)" fill="black"/>
</g>
</g>
</g>
<g id="Component_4">
<g id="Line 2_6">
<g id="Vector_21">
<path d="M 0 1L 48 1L 48 0L 0 0L 0 1Z" transform="matrix(0 -1 0.999386 -0.0350406 113.001 145.432)" fill="black"/>
</g>
</g>
<g id="Line 3_9">
<g id="Vector_22">
<path d="M 0 1L 6 1L 6 0L 0 0L 0 1Z" transform="translate(114 146.396) scale(-1)" fill="black"/>
</g>
</g>
<g id="Line 3_10">
<g id="Vector_23">
<path d="M 0 1L 6 1L 6 0L 0 0L 0 1Z" transform="translate(114 98.3965) scale(-1)" fill="black"/>
</g>
</g>
</g>
<g id="Line_2">
<g id="Vector_24">
<path d="M 0 1L 43 1L 43 0L 0 0L 0 1Z" transform="matrix(0 1 -1 0 59 100.396)" fill="black"/>
</g>
</g>
<g id="Line 2_7">
<g id="Vector_25">
<path d="M 0 1L 49 1L 49 0L 0 0L 0 1Z" transform="matrix(0 1 -0.99936 0.0357696 0.999359 97.3607)" fill="black"/>
</g>
</g>
<g id="Line 3_11">
<g id="Vector_26">
<path d="M 0 1L 6 1L 6 0L 0 0L 0 1Z" transform="translate(0 145.396)" fill="black"/>
</g>
</g>
<g id="Line 2_8">
<g id="Vector_27">
<path d="M 0 1L 48 1L 48 0L 0 0L 0 1Z" transform="matrix(0 -1 0.999386 -0.0350406 113.001 145.432)" fill="black"/>
</g>
</g>
<g id="Line 3_12">
<g id="Vector_28">
<path d="M 0 1L 6 1L 6 0L 0 0L 0 1Z" transform="translate(114 146.396) scale(-1)" fill="black"/>
</g>
</g>
<g id="x y_2">
<g id="Vector_29">
<path d="M 3.15821 2.70019L 4.79883 -8.34656e-08L 6.27539 -8.34656e-08L 3.85547 3.65722L 6.35059 7.39648L 4.8877 7.39648L 3.17871 4.62788L 1.46973 7.39648L -9.53484e-09 7.39648L 2.49512 3.65722L 0.075196 -8.34656e-08L 1.53809 -8.34656e-08L 3.15821 2.70019ZM 30.8779 5.54398L 32.6006 -8.34656e-08L 33.9541 -8.34656e-08L 30.9804 8.53808C 30.5202 9.76858 29.7887 10.3838 28.7861 10.3838L 28.5468 10.3633L 28.0752 10.2744L 28.0752 9.24898L 28.417 9.27638C 28.8454 9.27638 29.178 9.18978 29.415 9.01658C 29.6565 8.84338 29.8548 8.52668 30.0097 8.06638L 30.29 7.31448L 27.6513 -8.34656e-08L 29.0322 -8.34656e-08L 30.8779 5.54398Z" transform="translate(14.2803 84)" fill="black"/>
</g>
</g>
<g id="Arrow 2">
<g id="Vector_30">
<path d="M 13.3536 4.03554C 13.5488 3.84027 13.5488 3.52369 13.3536 3.32843L 10.1716 0.146452C 9.97631 -0.0488176 9.65973 -0.0488176 9.46447 0.146452C 9.2692 0.341712 9.2692 0.658293 9.46447 0.853553L 12.2929 3.68198L 9.46447 6.51041C 9.2692 6.70567 9.2692 7.02225 9.46447 7.21751C 9.65973 7.41278 9.97631 7.41278 10.1716 7.21751L 13.3536 4.03554ZM 0 4.18198L 13 4.18198L 13 3.18198L 0 3.18198L 0 4.18198Z" transform="translate(136 33.7145)" fill="black"/>
</g>
</g>
<g id="Arrow 2_2">
<g id="Vector_31">
<path d="M 13.3536 4.03554C 13.5488 3.84027 13.5488 3.52369 13.3536 3.32843L 10.1716 0.146452C 9.97631 -0.0488176 9.65973 -0.0488176 9.46447 0.146452C 9.2692 0.341712 9.2692 0.658293 9.46447 0.853553L 12.2929 3.68198L 9.46447 6.51041C 9.2692 6.70567 9.2692 7.02225 9.46447 7.21751C 9.65973 7.41278 9.97631 7.41278 10.1716 7.21751L 13.3536 4.03554ZM 0 4.18198L 13 4.18198L 13 3.18198L 0 3.18198L 0 4.18198Z" transform="translate(136 117.715)" fill="black"/>
</g>
</g>
<g id="1x + 0y = 45 0x + 1y = 2350">
<g id="Vector_32">
<path d="M 4.79687 11.5312L 3.34375 11.5312L 3.34375 1.89844L 0.429682 2.96875L 0.429682 1.65625L 4.57031 0.10156L 4.79687 0.10156L 4.79687 11.5312ZM 12.0157 6.16406L 13.8907 3.07813L 15.5782 3.07813L 12.8125 7.25785L 15.6641 11.5312L 13.9922 11.5312L 12.0391 8.36715L 10.086 11.5312L 8.40625 11.5312L 11.2578 7.25785L 8.49218 3.07813L 10.1641 3.07813L 12.0157 6.16406ZM 25.2266 5.42969L 28.3985 5.42969L 28.3985 6.79685L 25.2266 6.79685L 25.2266 10.3906L 23.7735 10.3906L 23.7735 6.79685L 20.6016 6.79685L 20.6016 5.42969L 23.7735 5.42969L 23.7735 2.10937L 25.2266 2.10937L 25.2266 5.42969ZM 41.1172 6.67965C 41.1172 8.37235 40.8282 9.63025 40.25 10.4531C 39.6719 11.276 38.7683 11.6875 37.5391 11.6875C 36.3256 11.6875 35.4271 11.2865 34.8438 10.4844C 34.2605 9.67705 33.9584 8.47395 33.9375 6.87505L 33.9375 4.94531C 33.9375 3.27344 34.2266 2.03125 34.8047 1.21875C 35.3828 0.40625 36.2891 0 37.5235 0C 38.7474 0 39.6485 0.39323 40.2266 1.17969C 40.8047 1.96094 41.1016 3.16927 41.1172 4.80469L 41.1172 6.67965ZM 39.6719 4.70313C 39.6719 3.47917 39.5 2.58854 39.1563 2.03125C 38.8125 1.46875 38.2683 1.1875 37.5235 1.1875C 36.7839 1.1875 36.2448 1.46615 35.9063 2.02344C 35.5677 2.58073 35.3933 3.4375 35.3828 4.59375L 35.3828 6.90625C 35.3828 8.13545 35.5599 9.04425 35.9141 9.63285C 36.2735 10.2161 36.8151 10.5078 37.5391 10.5078C 38.2526 10.5078 38.7813 10.2318 39.125 9.67965C 39.474 9.12765 39.6563 8.25785 39.6719 7.07035L 39.6719 4.70313ZM 45.8828 9.41405L 47.8516 3.07813L 49.3985 3.07813L 46 12.836C 45.474 14.2422 44.6381 14.9454 43.4922 14.9454L 43.2188 14.9219L 42.6797 14.8204L 42.6797 13.6485L 43.0704 13.6796C 43.5599 13.6796 43.9401 13.5808 44.211 13.3829C 44.487 13.1849 44.7136 12.823 44.8907 12.2969L 45.211 11.4375L 42.1954 3.07813L 43.7735 3.07813L 45.8828 9.41405ZM 65.2422 5.17187L 58.7266 5.17187L 58.7266 3.91406L 65.2422 3.91406L 65.2422 5.17187ZM 65.2422 8.41405L 58.7266 8.41405L 58.7266 7.16405L 65.2422 7.16405L 65.2422 8.41405ZM 81.3047 7.71095L 82.8828 7.71095L 82.8828 8.89065L 81.3047 8.89065L 81.3047 11.5312L 79.8516 11.5312L 79.8516 8.89065L 74.6719 8.89065L 74.6719 8.03905L 79.7657 0.15625L 81.3047 0.15625L 81.3047 7.71095ZM 76.3125 7.71095L 79.8516 7.71095L 79.8516 2.13281L 79.6797 2.44531L 76.3125 7.71095ZM 84.8516 5.82813L 85.4297 0.15625L 91.2578 0.15625L 91.2578 1.49219L 86.6563 1.49219L 86.3125 4.59375C 86.8698 4.26563 87.5026 4.10156 88.211 4.10156C 89.2474 4.10156 90.0704 4.44531 90.6797 5.13281C 91.2891 5.8151 91.5938 6.73955 91.5938 7.90625C 91.5938 9.07815 91.2761 10.0027 90.6407 10.6797C 90.0105 11.3516 89.1276 11.6875 87.9922 11.6875C 86.987 11.6875 86.1667 11.4088 85.5313 10.8516C 84.8959 10.2943 84.5339 9.52345 84.4454 8.53905L 85.8125 8.53905C 85.9011 9.19015 86.1328 9.68225 86.5078 10.0156C 86.8828 10.3438 87.3776 10.5078 87.9922 10.5078C 88.6641 10.5078 89.1901 10.2786 89.5704 9.82035C 89.9558 9.36195 90.1485 8.72915 90.1485 7.92185C 90.1485 7.16145 89.9401 6.55205 89.5235 6.09375C 89.112 5.63021 88.5625 5.39844 87.875 5.39844C 87.2448 5.39844 86.75 5.53646 86.3907 5.8125L 86.0078 6.125L 84.8516 5.82813ZM 7.17968 25.6796C 7.17968 27.3723 6.89062 28.6303 6.3125 29.4532C 5.73437 30.2761 4.83073 30.6875 3.60156 30.6875C 2.38802 30.6875 1.48958 30.2864 0.906252 29.4843C 0.322912 28.677 0.020833 27.4739 -2.31628e-08 25.875L -2.31628e-08 23.9454C -2.31628e-08 22.2735 0.289062 21.0312 0.867182 20.2188C 1.44531 19.4062 2.35156 19 3.58594 19C 4.80989 19 5.71094 19.3932 6.28906 20.1796C 6.86718 20.9609 7.16406 22.1692 7.17968 23.8046L 7.17968 25.6796ZM 5.73437 23.7031C 5.73437 22.4791 5.5625 21.5886 5.21875 21.0312C 4.875 20.4688 4.33073 20.1875 3.58594 20.1875C 2.84635 20.1875 2.30729 20.4662 1.96875 21.0235C 1.63021 21.5808 1.45573 22.4375 1.44531 23.5938L 1.44531 25.9062C 1.44531 27.1355 1.62239 28.0443 1.97656 28.6329C 2.33594 29.2162 2.8776 29.5079 3.60156 29.5079C 4.3151 29.5079 4.84375 29.2317 5.1875 28.6796C 5.53646 28.1276 5.71875 27.2579 5.73437 26.0704L 5.73437 23.7031ZM 12.0157 25.164L 13.8907 22.0781L 15.5782 22.0781L 12.8125 26.2579L 15.6641 30.5312L 13.9922 30.5312L 12.0391 27.3671L 10.086 30.5312L 8.40625 30.5312L 11.2578 26.2579L 8.49218 22.0781L 10.1641 22.0781L 12.0157 25.164ZM 25.2266 24.4296L 28.3985 24.4296L 28.3985 25.7969L 25.2266 25.7969L 25.2266 29.3907L 23.7735 29.3907L 23.7735 25.7969L 20.6016 25.7969L 20.6016 24.4296L 23.7735 24.4296L 23.7735 21.1094L 25.2266 21.1094L 25.2266 24.4296ZM 38.7344 30.5312L 37.2813 30.5312L 37.2813 20.8985L 34.3672 21.9688L 34.3672 20.6562L 38.5078 19.1015L 38.7344 19.1015L 38.7344 30.5312ZM 45.8828 28.414L 47.8516 22.0781L 49.3985 22.0781L 46 31.8359C 45.474 33.2421 44.6381 33.9454 43.4922 33.9454L 43.2188 33.9218L 42.6797 33.8204L 42.6797 32.6484L 43.0704 32.6796C 43.5599 32.6796 43.9401 32.5807 44.211 32.3829C 44.487 32.1848 44.7136 31.8229 44.8907 31.2968L 45.211 30.4375L 42.1954 22.0781L 43.7735 22.0781L 45.8828 28.414ZM 65.2422 24.1719L 58.7266 24.1719L 58.7266 22.914L 65.2422 22.914L 65.2422 24.1719ZM 65.2422 27.414L 58.7266 27.414L 58.7266 26.164L 65.2422 26.164L 65.2422 27.414ZM 82.6563 30.5312L 75.2032 30.5312L 75.2032 29.4921L 79.1407 25.1171C 79.724 24.4557 80.125 23.9193 80.3438 23.5079C 80.5677 23.0912 80.6797 22.6614 80.6797 22.2188C 80.6797 21.625 80.5 21.1381 80.1407 20.7579C 79.7813 20.3777 79.3021 20.1875 78.7032 20.1875C 77.9844 20.1875 77.4245 20.3932 77.0235 20.8046C 76.6276 21.2109 76.4297 21.7787 76.4297 22.5079L 74.9844 22.5079C 74.9844 21.461 75.3204 20.6145 75.9922 19.9688C 76.6693 19.323 77.573 19 78.7032 19C 79.7605 19 80.5964 19.2787 81.211 19.836C 81.8256 20.3881 82.1328 21.125 82.1328 22.0469C 82.1328 23.1667 81.4193 24.5 79.9922 26.0469L 76.9454 29.3516L 82.6563 29.3516L 82.6563 30.5312ZM 86.2891 24.1406L 87.375 24.1406C 88.0573 24.1302 88.5938 23.9506 88.9844 23.6015C 89.375 23.2526 89.5704 22.7812 89.5704 22.1875C 89.5704 20.8542 88.9063 20.1875 87.5782 20.1875C 86.9532 20.1875 86.4532 20.3671 86.0782 20.7265C 85.7084 21.0807 85.5235 21.552 85.5235 22.1406L 84.0782 22.1406C 84.0782 21.2395 84.4063 20.4922 85.0625 19.8985C 85.724 19.2994 86.5625 19 87.5782 19C 88.6511 19 89.4922 19.2838 90.1016 19.8515C 90.711 20.4192 91.0157 21.2083 91.0157 22.2188C 91.0157 22.7136 90.8542 23.1928 90.5313 23.6562C 90.2136 24.1197 89.7787 24.4662 89.2266 24.6954C 89.8516 24.8933 90.3334 25.2213 90.6719 25.6796C 91.0157 26.1381 91.1875 26.698 91.1875 27.3594C 91.1875 28.3803 90.8542 29.1902 90.1875 29.7891C 89.5209 30.3881 88.6537 30.6875 87.586 30.6875C 86.5183 30.6875 85.6485 30.3985 84.9766 29.8204C 84.3099 29.2422 83.9766 28.4792 83.9766 27.5312L 85.4297 27.5312C 85.4297 28.1302 85.625 28.6094 86.0157 28.9688C 86.4063 29.3281 86.9297 29.5079 87.586 29.5079C 88.2839 29.5079 88.8177 29.3255 89.1875 28.9609C 89.5573 28.5963 89.7422 28.073 89.7422 27.3906C 89.7422 26.7291 89.5391 26.2213 89.1328 25.8671C 88.7266 25.5131 88.1407 25.3308 87.375 25.3204L 86.2891 25.3204L 86.2891 24.1406ZM 93.836 24.8281L 94.4141 19.1562L 100.243 19.1562L 100.243 20.4921L 95.6407 20.4921L 95.2969 23.5938C 95.8542 23.2656 96.487 23.1015 97.1954 23.1015C 98.2318 23.1015 99.0547 23.4454 99.6636 24.1329C 100.274 24.8152 100.579 25.7395 100.579 26.9062C 100.579 28.0781 100.261 29.0026 99.6246 29.6796C 98.9948 30.3515 98.112 30.6875 96.9766 30.6875C 95.9714 30.6875 95.1511 30.4089 94.5157 29.8516C 93.8802 29.2943 93.5183 28.5234 93.4297 27.539L 94.7969 27.539C 94.8855 28.1901 95.1172 28.6823 95.4922 29.0157C 95.8672 29.3438 96.362 29.5079 96.9766 29.5079C 97.6485 29.5079 98.1745 29.2787 98.5547 28.8204C 98.9401 28.3619 99.1326 27.7292 99.1326 26.9219C 99.1326 26.1614 98.9245 25.552 98.5078 25.0938C 98.0964 24.6303 97.5469 24.3985 96.8594 24.3985C 96.2292 24.3985 95.7344 24.5365 95.375 24.8125L 94.9922 25.125L 93.836 24.8281ZM 109.29 25.6796C 109.29 27.3723 109 28.6303 108.422 29.4532C 107.844 30.2761 106.941 30.6875 105.711 30.6875C 104.498 30.6875 103.599 30.2864 103.016 29.4843C 102.433 28.677 102.131 27.4739 102.11 25.875L 102.11 23.9454C 102.11 22.2735 102.399 21.0312 102.977 20.2188C 103.555 19.4062 104.461 19 105.696 19C 106.92 19 107.821 19.3932 108.399 20.1796C 108.977 20.9609 109.274 22.1692 109.29 23.8046L 109.29 25.6796ZM 107.844 23.7031C 107.844 22.4791 107.672 21.5886 107.329 21.0312C 106.985 20.4688 106.441 20.1875 105.696 20.1875C 104.956 20.1875 104.417 20.4662 104.079 21.0235C 103.74 21.5808 103.566 22.4375 103.555 23.5938L 103.555 25.9062C 103.555 27.1355 103.732 28.0443 104.086 28.6329C 104.446 29.2162 104.987 29.5079 105.711 29.5079C 106.425 29.5079 106.954 29.2317 107.297 28.6796C 107.646 28.1276 107.829 27.2579 107.844 26.0704L 107.844 23.7031Z" transform="translate(170.898 103.865)" fill="#333333"/>
</g>
</g>
<g id="Arrow 2_3">
<g id="Vector_33">
<path d="M 13.3536 4.03554C 13.5488 3.84027 13.5488 3.52369 13.3536 3.32843L 10.1716 0.146452C 9.97631 -0.0488176 9.65973 -0.0488176 9.46447 0.146452C 9.2692 0.341712 9.2692 0.658293 9.46447 0.853553L 12.2929 3.68198L 9.46447 6.51041C 9.2692 6.70567 9.2692 7.02225 9.46447 7.21751C 9.65973 7.41278 9.97631 7.41278 10.1716 7.21751L 13.3536 4.03554ZM 0 4.18198L 13 4.18198L 13 3.18198L 0 3.18198L 0 4.18198Z" transform="translate(295 118.715)" fill="black"/>
</g>
</g>
<g id="x = 45 y = 2350">
<g id="Vector_34">
<path d="M 3.75781 6.00781L 5.63281 2.92188L 7.32031 2.92188L 4.55469 7.1016L 7.40625 11.375L 5.73438 11.375L 3.78124 8.2109L 1.82812 11.375L 0.148437 11.375L 3.00001 7.1016L 0.234375 2.92188L 1.90624 2.92188L 3.75781 6.00781ZM 19.4375 5.01562L 12.9219 5.01562L 12.9219 3.75781L 19.4375 3.75781L 19.4375 5.01562ZM 19.4375 8.2578L 12.9219 8.2578L 12.9219 7.0078L 19.4375 7.0078L 19.4375 8.2578ZM 31.5312 7.5547L 33.1093 7.5547L 33.1093 8.7344L 31.5312 8.7344L 31.5312 11.375L 30.0781 11.375L 30.0781 8.7344L 24.8984 8.7344L 24.8984 7.8828L 29.9922 0L 31.5312 0L 31.5312 7.5547ZM 26.539 7.5547L 30.0781 7.5547L 30.0781 1.97656L 29.9062 2.28906L 26.539 7.5547ZM 35.0781 5.67188L 35.6562 0L 41.4843 0L 41.4843 1.33594L 36.8828 1.33594L 36.539 4.4375C 37.0963 4.10938 37.7291 3.94531 38.4375 3.94531C 39.4739 3.94531 40.2969 4.28906 40.9062 4.97656C 41.5156 5.65885 41.8203 6.5833 41.8203 7.75C 41.8203 8.9219 41.5026 9.8464 40.8672 10.5234C 40.237 11.1953 39.3541 11.5312 38.2187 11.5312C 37.2135 11.5312 36.3932 11.2526 35.7578 10.6953C 35.1224 10.138 34.7604 9.3672 34.6719 8.3828L 36.039 8.3828C 36.1276 9.0339 36.3593 9.526 36.7343 9.8594C 37.1093 10.1875 37.6041 10.3516 38.2187 10.3516C 38.8906 10.3516 39.4166 10.1224 39.7969 9.6641C 40.1823 9.2057 40.375 8.5729 40.375 7.7656C 40.375 7.0052 40.1666 6.3958 39.75 5.9375C 39.3385 5.47396 38.789 5.24219 38.1015 5.24219C 37.4713 5.24219 36.9765 5.38021 36.6172 5.65625L 36.2343 5.96875L 35.0781 5.67188ZM 3.68751 28.2578L 5.65625 21.9219L 7.20312 21.9219L 3.80469 31.6797C 3.27865 33.0859 2.44271 33.7891 1.29688 33.7891L 1.02343 33.7656L 0.484375 33.6641L 0.484375 32.4922L 0.875005 32.5234C 1.36459 32.5234 1.74479 32.4245 2.01562 32.2266C 2.29167 32.0286 2.51822 31.6667 2.69531 31.1406L 3.01562 30.2812L 0 21.9219L 1.57812 21.9219L 3.68751 28.2578ZM 19.0781 24.0156L 12.5625 24.0156L 12.5625 22.7578L 19.0781 22.7578L 19.0781 24.0156ZM 19.0781 27.2578L 12.5625 27.2578L 12.5625 26.0078L 19.0781 26.0078L 19.0781 27.2578ZM 32.5234 30.375L 25.0703 30.375L 25.0703 29.3359L 29.0078 24.9609C 29.5911 24.2995 29.9922 23.763 30.2109 23.3516C 30.4349 22.9349 30.5469 22.5052 30.5469 22.0625C 30.5469 21.4688 30.3672 20.9818 30.0078 20.6016C 29.6484 20.2214 29.1692 20.0312 28.5703 20.0312C 27.8515 20.0312 27.2916 20.237 26.8906 20.6484C 26.4948 21.0547 26.2969 21.6224 26.2969 22.3516L 24.8515 22.3516C 24.8515 21.3047 25.1875 20.4583 25.8593 19.8125C 26.5364 19.1667 27.4401 18.8438 28.5703 18.8438C 29.6276 18.8438 30.4635 19.1224 31.0781 19.6797C 31.6927 20.2318 32 20.9688 32 21.8906C 32 23.0104 31.2864 24.3438 29.8593 25.8906L 26.8125 29.1953L 32.5234 29.1953L 32.5234 30.375ZM 36.1562 23.9844L 37.2422 23.9844C 37.9245 23.974 38.4609 23.7943 38.8515 23.4453C 39.2422 23.0964 39.4375 22.625 39.4375 22.0312C 39.4375 20.6979 38.7734 20.0312 37.4453 20.0312C 36.8203 20.0312 36.3203 20.2109 35.9453 20.5703C 35.5755 20.9245 35.3906 21.3958 35.3906 21.9844L 33.9453 21.9844C 33.9453 21.0833 34.2734 20.3359 34.9297 19.7422C 35.5911 19.1432 36.4297 18.8438 37.4453 18.8438C 38.5182 18.8438 39.3593 19.1276 39.9687 19.6953C 40.5781 20.263 40.8828 21.0521 40.8828 22.0625C 40.8828 22.5573 40.7213 23.0365 40.3984 23.5C 40.0807 23.9635 39.6458 24.3099 39.0937 24.5391C 39.7187 24.737 40.2005 25.0651 40.539 25.5234C 40.8828 25.9818 41.0547 26.5417 41.0547 27.2031C 41.0547 28.224 40.7213 29.0339 40.0547 29.6328C 39.388 30.2318 38.5208 30.5312 37.4531 30.5312C 36.3854 30.5312 35.5156 30.2422 34.8437 29.6641C 34.1771 29.0859 33.8437 28.3229 33.8437 27.375L 35.2969 27.375C 35.2969 27.974 35.4922 28.4531 35.8828 28.8125C 36.2734 29.1719 36.7969 29.3516 37.4531 29.3516C 38.151 29.3516 38.6849 29.1693 39.0547 28.8047C 39.4245 28.4401 39.6093 27.9167 39.6093 27.2344C 39.6093 26.5729 39.4062 26.0651 39 25.7109C 38.5937 25.3568 38.0078 25.1745 37.2422 25.1641L 36.1562 25.1641L 36.1562 23.9844ZM 43.7031 24.6719L 44.2812 19L 50.1093 19L 50.1093 20.3359L 45.5078 20.3359L 45.164 23.4375C 45.7213 23.1094 46.3541 22.9453 47.0625 22.9453C 48.0989 22.9453 48.9219 23.2891 49.5312 23.9766C 50.1406 24.6589 50.4453 25.5833 50.4453 26.75C 50.4453 27.9219 50.1276 28.8464 49.4922 29.5234C 48.862 30.1953 47.9791 30.5312 46.8437 30.5312C 45.8385 30.5312 45.0182 30.2526 44.3828 29.6953C 43.7474 29.138 43.3854 28.3672 43.2969 27.3828L 44.664 27.3828C 44.7526 28.0339 44.9843 28.526 45.3593 28.8594C 45.7343 29.1875 46.2291 29.3516 46.8437 29.3516C 47.5156 29.3516 48.0416 29.1224 48.4219 28.6641C 48.8073 28.2057 49 27.5729 49 26.7656C 49 26.0052 48.7916 25.3958 48.375 24.9375C 47.9635 24.474 47.414 24.2422 46.7265 24.2422C 46.0963 24.2422 45.6015 24.3802 45.2422 24.6562L 44.8593 24.9688L 43.7031 24.6719ZM 59.1562 25.5234C 59.1562 27.2161 58.8672 28.474 58.289 29.2969C 57.7109 30.1198 56.8073 30.5312 55.5781 30.5312C 54.3646 30.5312 53.4661 30.1302 52.8828 29.3281C 52.2995 28.5208 51.9974 27.3177 51.9765 25.7188L 51.9765 23.7891C 51.9765 22.1172 52.2656 20.875 52.8437 20.0625C 53.4219 19.25 54.3281 18.8438 55.5625 18.8438C 56.7864 18.8438 57.6875 19.237 58.2656 20.0234C 58.8437 20.8047 59.1406 22.013 59.1562 23.6484L 59.1562 25.5234ZM 57.7109 23.5469C 57.7109 22.3229 57.539 21.4323 57.1953 20.875C 56.8515 20.3125 56.3073 20.0312 55.5625 20.0312C 54.8229 20.0312 54.2838 20.3099 53.9453 20.8672C 53.6067 21.4245 53.4323 22.2812 53.4219 23.4375L 53.4219 25.75C 53.4219 26.9792 53.5989 27.888 53.9531 28.4766C 54.3125 29.0599 54.8541 29.3516 55.5781 29.3516C 56.2916 29.3516 56.8203 29.0755 57.164 28.5234C 57.513 27.9714 57.6953 27.1016 57.7109 25.9141L 57.7109 23.5469Z" transform="translate(330.172 104.021)" fill="#333333"/>
</g>
</g>
</g>
</g>
</g>
<g id="-">
<path d="M 3.07617 7.81836L 0.216797 7.81836L 0.216797 6.93359L 3.07617 6.93359L 3.07617 7.81836Z" transform="translate(71 41)" fill="black"/>
</g>
<g id="-_2">
<path d="M 3.07617 7.81836L 0.216797 7.81836L 0.216797 6.93359L 3.07617 6.93359L 3.07617 7.81836Z" transform="translate(71 22)" fill="black"/>
</g>
</g>
</svg>

